# xmcd
#
# Track frame offsets:
#	150
#	7351
#	22113
#	39734
#	62514
#	84063
#	96881
#	113766
#	129323
#	151325
#	173407
#	201227
#	216334
#	238108
#	253397
#	268216
#	284394
#	304902
#
# Disc length: 4276 seconds
#
# Revision: 0
# Processed by: cddbd v1.5.2PL0 Copyright (c) Steve Scherf et al.
# Submitted via: EasyCDDAExtractor 9.0.0.1
#
DISCID=0410b212
DTITLE=Trio Estrela de Ouro - As Boas
DYEAR=2007
DGENRE=Country
TTITLE0=Abertura
TTITLE1=Começo do Baile
TTITLE2=A Lua
TTITLE3=Barquinho de Ouro
TTITLE4=Brinco de ouro
TTITLE5=Chegada de Baile
TTITLE6=Dois Corações
TTITLE7=Espalha Brasas
TTITLE8=Fui Chamado para Festa
TTITLE9=Língua Cigana
TTITLE10=Mudanças
TTITLE11=Não é Bebendo
TTITLE12=Rancheira da Roça
TTITLE13=Sanfoneiro Folgado
TTITLE14=Sala Cheia
TTITLE15=Sereno da Madrugada
TTITLE16=Tive Preso 3 dias no Céu
TTITLE17=Vai Vai Amor
EXTD=
EXTT0=
EXTT1=
EXTT2=
EXTT3=
EXTT4=
EXTT5=
EXTT6=
EXTT7=
EXTT8=
EXTT9=
EXTT10=
EXTT11=
EXTT12=
EXTT13=
EXTT14=
EXTT15=
EXTT16=
EXTT17=
PLAYORDER=
